<svg xmlns="http://www.w3.org/2000/svg" viewBox="0 0 180 180" width="180" height="180">
  <defs>
    <linearGradient id="g1" x1="0%" y1="0%" x2="100%" y2="100%">
      <stop offset="0%" stop-color="#818cf8"/>
      <stop offset="100%" stop-color="#6366f1"/>
    </linearGradient>
    <linearGradient id="g2" x1="0%" y1="0%" x2="100%" y2="100%">
      <stop offset="0%" stop-color="#f87171"/>
      <stop offset="100%" stop-color="#ef4444"/>
    </linearGradient>
    <linearGradient id="g3" x1="0%" y1="0%" x2="100%" y2="100%">
      <stop offset="0%" stop-color="#4ade80"/>
      <stop offset="100%" stop-color="#22c55e"/>
    </linearGradient>
    <linearGradient id="g4" x1="0%" y1="0%" x2="100%" y2="100%">
      <stop offset="0%" stop-color="#fbbf24"/>
      <stop offset="100%" stop-color="#f59e0b"/>
    </linearGradient>
    <linearGradient id="g5" x1="0%" y1="0%" x2="100%" y2="100%">
      <stop offset="0%" stop-color="#f472b6"/>
      <stop offset="100%" stop-color="#ec4899"/>
    </linearGradient>
    <linearGradient id="g6" x1="0%" y1="0%" x2="100%" y2="100%">
      <stop offset="0%" stop-color="#38bdf8"/>
      <stop offset="100%" stop-color="#0ea5e9"/>
    </linearGradient>
  </defs>

  <!-- Background -->
  <rect width="180" height="180" rx="40" fill="#0c0c14"/>

  <!-- Card: 7 (top-left, tilted right) -->
  <g transform="translate(48,44) rotate(-6)">
    <rect x="-28" y="-20" width="56" height="40" rx="6" fill="url(#g2)"/>
    <text x="0" y="7" text-anchor="middle" font-family="'Inter','Helvetica Neue',sans-serif" font-weight="800" font-size="22" fill="#111">7</text>
  </g>

  <!-- Card: × (top-right, tilted left) -->
  <g transform="translate(128,40) rotate(5)">
    <rect x="-28" y="-20" width="56" height="40" rx="6" fill="url(#g1)"/>
    <text x="0" y="8" text-anchor="middle" font-family="'Inter','Helvetica Neue',sans-serif" font-weight="800" font-size="24" fill="#111">×</text>
  </g>

  <!-- Card: 3 (middle-left, tilted left) -->
  <g transform="translate(38,92) rotate(8)">
    <rect x="-28" y="-20" width="56" height="40" rx="6" fill="url(#g4)"/>
    <text x="0" y="7" text-anchor="middle" font-family="'Inter','Helvetica Neue',sans-serif" font-weight="800" font-size="22" fill="#111">3</text>
  </g>

  <!-- Card: = (center, straight) -->
  <g transform="translate(92,84) rotate(-3)">
    <rect x="-28" y="-20" width="56" height="40" rx="6" fill="url(#g3)"/>
    <text x="0" y="8" text-anchor="middle" font-family="'Inter','Helvetica Neue',sans-serif" font-weight="800" font-size="24" fill="#111">=</text>
  </g>

  <!-- Card: 21 (right, tilted) -->
  <g transform="translate(140,96) rotate(-7)">
    <rect x="-28" y="-20" width="56" height="40" rx="6" fill="url(#g5)"/>
    <text x="0" y="7" text-anchor="middle" font-family="'Inter','Helvetica Neue',sans-serif" font-weight="800" font-size="20" fill="#111">21</text>
  </g>

  <!-- Card: : (bottom-left, tilted) -->
  <g transform="translate(56,138) rotate(4)">
    <rect x="-28" y="-20" width="56" height="40" rx="6" fill="url(#g6)"/>
    <text x="0" y="8" text-anchor="middle" font-family="'Inter','Helvetica Neue',sans-serif" font-weight="800" font-size="24" fill="#111">:</text>
  </g>

  <!-- Card: 5 (bottom-right, tilted) -->
  <g transform="translate(122,140) rotate(-5)">
    <rect x="-28" y="-20" width="56" height="40" rx="6" fill="url(#g2)" opacity="0.85"/>
    <text x="0" y="7" text-anchor="middle" font-family="'Inter','Helvetica Neue',sans-serif" font-weight="800" font-size="22" fill="#111">5</text>
  </g>
</svg>
